# AST/ASF file generated using VICON BodyLanguage
# -----------------------------------------------
:version 1.10
:name VICON
:units
  mass 1.0
  length 0.45
  angle deg
:documentation
   .ast/.asf automatically generated from VICON data using
   VICON BodyBuilder and BodyLanguage model FoxedUp or BRILLIANT.MOD
:root
   order TX TY TZ RX RY RZ
   axis XYZ
   position 0 0 0  
   orientation 0 0 0 
:bonedata
  begin
     id 1 
     name lhipjoint
     direction 0.612567 -0.751349 0.245431 
     length 2.42285 
     axis 0 0 0  XYZ
  end
  begin
     id 2 
     name lfemur
     direction 0.34202 -0.939693 0  
     length 7.11304  
     axis 0 0 20  XYZ
    dof rx ry rz
    limits (-160.0 20.0)
           (-70.0 70.0)
           (-60.0 70.0)
  end
  begin
     id 3 
     name ltibia
     direction 0.34202 -0.939693 0   
     length 7.84529   
     axis 0 0 20   XYZ
    dof rx
    limits (-10.0 170.0)
  end
  begin
     id 4 
     name lfoot
     direction 0.0779239 -0.214094 0.9737   
     length 1.97176   
     axis -90 7.62852e-016 20   XYZ
    dof rx rz
    limits (-45.0 90.0)
           (-70.0 20.0)
  end
  begin
     id 5 
     name ltoes
     direction 1.53565e-011 -4.21709e-011 1   
     length 0.993197   
     axis -90 7.62852e-016 20   XYZ
    dof rx
    limits (-90.0 20.0)
  end
  begin
     id 6 
     name rhipjoint
     direction -0.665722 -0.709315 0.231701   
     length 2.56642  
     axis 0 0 0  XYZ 
  end
  begin
     id 7 
     name rfemur
     direction -0.34202 -0.939693 0   
     length 7.32108   
     axis 0 0 -20   XYZ
    dof rx ry rz
    limits (-160.0 20.0)
           (-70.0 70.0)
           (-70.0 60.0)
  end
  begin
     id 8 
     name rtibia
     direction -0.34202 -0.939693 0   
     length 7.81254   
     axis 0 0 -20   XYZ
    dof rx
    limits (-10.0 170.0)
 end
 begin
     id 9 
     name rfoot
     direction -0.0832806 -0.228812 0.969902   
     length 2.08278  
     axis -90 -7.62852e-016 -20   XYZ
    dof rx rz
    limits (-45.0 90.0)
           (-20.0 70.0)
  end
  begin
     id 10 
     name rtoes
     direction -1.53589e-011 -4.22086e-011 1   
     length 1.04609   
     axis -90 -7.62852e-016 -20   XYZ
    dof rx
    limits (-90.0 20.0)
  end
  begin
     id 11 
     name lowerback
     direction -0.00506013 0.988403 -0.151766   
     length 2.01978   
     axis 0 0 0   XYZ
    dof rx ry rz
    limits (-20.0 45.0)
           (-30.0 30.0)
           (-30.0 30.0)
  end
  begin
     id 12 
     name upperback
     direction -0.00836389 0.99968 0.0238859   
     length 2.01276   
     axis 0 0 0   XYZ
    dof rx ry rz
    limits (-20.0 45.0)
           (-30.0 30.0)
           (-30.0 30.0)
  end
  begin
     id 13 
     name thorax
     direction -0.00684136 0.995386 0.0957043   
     length 2.07303   
     axis 0 0 0   XYZ
    dof rx ry rz
    limits (-20.0 45.0)
           (-30.0 30.0)
           (-30.0 30.0)
  end
  begin
     id 14 
     name lowerneck
     direction -0.0161045 0.999661 0.0204485   
     length 1.91243   
     axis 0 0 0   XYZ
    dof rx ry rz
    limits (-20.0 45.0)
           (-30.0 30.0)
           (-30.0 30.0)
  end
  begin
     id 15 
     name upperneck
     direction 0.0553583 0.990946 -0.122319   
     length 1.91574   
     axis 0 0 0   XYZ
    dof rx ry rz
    limits (-20.0 45.0)
           (-30.0 30.0)
           (-30.0 30.0)
  end
  begin
     id 16
     name head
     direction 0.0180273 0.998839 -0.0446756  
     length 1.92693  
     axis 0 0 0   XYZ
    dof rx ry rz
    limits (-20.0 45.0)
           (-30.0 30.0)
           (-30.0 30.0)
  end
  begin
     id 17 
     name lclavicle
     direction 0.945646 0.319323 -0.0615358  
     length 4.0076  
     axis 0 0 0   XYZ
    dof ry rz
    limits (-20.0 10.0)
           (0.0 20.0)
  end
  begin
     id 18 
     name lhumerus
     direction 1 -4.48967e-011 -2.79996e-027   
     length 5.64147   
     axis 180 -30 -90   XYZ
    dof rx ry rz
    limits (-60.0 90.0)
           (-90.0 90.0)
           (-90.0 90.0)
  end
  begin
     id 19
     name lradius
     direction 1 -4.48976e-011 -9.5122e-027   
     length 2.86444   
     axis 180 -30 -90   XYZ
    dof rx
    limits (-10.0 170.0)
  end
  begin
     id 20
     name lwrist
     direction 1 -4.48983e-011 -1.24047e-026   
     length 1.43222   
     axis 9.05591e-015 90 90   XYZ
    dof ry
    limits (-180.0 0.0)
 end
  begin
     id 21 
     name lhand
     direction 1 -4.4892e-011 -2.48094e-026   
     length 0.722123   
     axis 1.58305e-014 90 90   XYZ
    dof rx rz
    limits (-90.0 90.0)
           (-45.0 45.0)
  end
  begin
     id 22 
     name lfingers
     direction 1 -4.48895e-011 -4.96187e-026   
     length 0.582194   
     axis 3.1661e-014 90 90   XYZ
    dof rx
    limits (0.0 90.0)
  end
  begin
     id 23
     name lthumb
     direction 0.707107 -6.34961e-011 0.707107   
     length 0.835918   
     axis -90 45 2.85299e-015   XYZ
    dof rx rz
    limits (-45.0 45.0)
           (-45.0 45.0)
  end
  begin
     id 24 
     name rclavicle
     direction -0.932635 0.324218 -0.15835   
     length 3.65819  
     axis 0 0 0   XYZ 
    dof ry rz
    limits (-10.0 20.0)
           (-20.0 0.0)
  end
  begin
     id 25 
     name rhumerus
     direction -1 -4.48965e-011 -4.02296e-027  
     length 5.44729   
     axis 180 30 90   XYZ
    dof rx ry rz
    limits (-90.0 60.0)
           (-90.0 90.0)
           (-90.0 90.0)
  end
  begin
     id 26 
     name rradius
     direction -1 -4.48957e-011 -8.81087e-027   
     length 3.08821   
     axis 180 30 90   XYZ
    dof rx
    limits (-10.0 170.0)
  end
  begin
     id 27 
     name rwrist
     direction -1 -4.49015e-011 -1.24047e-026   
     length 1.5441   
     axis 9.05591e-015 -90 -90   XYZ
    dof ry
    limits (-180.0 0.0)
  end
  begin
     id 28
     name rhand
     direction -1 -4.4891e-011 -2.48094e-026   
     length 0.821049   
     axis 1.58305e-014 -90 -90   XYZ
    dof rx rz
    limits (-90.0 90.0)
           (-45.0 45.0)
  end
  begin
     id 29
     name rfingers
     direction -1 -4.48985e-011 -4.96187e-026   
     length 0.661951   
     axis 3.1661e-014 -90 -90   XYZ
    dof rx
    limits (0.0 90.0)
  end
  begin
     id 30
     name rthumb
     direction -0.707107 -6.34906e-011 0.707107   
     length 0.950433   
     axis -90 -45 -2.85299e-015   XYZ
    dof rx rz
    limits (-45.0 45.0)
           (-45.0 45.0)
  end
:hierarchy
  begin
    root lhipjoint rhipjoint lowerback
    lhipjoint lfemur
    lfemur ltibia
    ltibia lfoot
    lfoot ltoes
    rhipjoint rfemur
    rfemur rtibia
    rtibia rfoot
    rfoot rtoes
    lowerback upperback
    upperback thorax
    thorax lowerneck lclavicle rclavicle
    lowerneck upperneck
    upperneck head
    lclavicle lhumerus
    lhumerus lradius
    lradius lwrist
    lwrist lhand lthumb
    lhand lfingers
    rclavicle rhumerus
    rhumerus rradius
    rradius rwrist
    rwrist rhand rthumb
    rhand rfingers
  end

#!OML:ASF F:\VICON\USERDATA\INSTALL\rory3\rory3.ASF
:FULLY-SPECIFIED
:DEGREES
1003
root 3.18557 17.7861 0.392898 -23.9868 88.5881 -23.8651
lowerback 2.90563 0.148365 3.01712
upperback 0.0924593 0.284604 -1.00493
thorax -1.51468 0.118541 -2.73739
lowerneck -2.15299 -5.06704 -5.28033
upperneck 1.94486 -6.80488 8.58517
head 1.53496 -3.31225 3.57075
rclavicle -2.28602e-015 0
rhumerus -35.0955 -3.99012 -84.248
rradius 34.2532
rwrist 12.0702
rhand -6.44209 6.41051
rfingers 7.12502
rthumb 19.4073 -22.641
lclavicle -2.28602e-015 0
lhumerus -33.5478 -6.6387 86.906
lradius 28.9892
lwrist 29.1735
lhand -10.3921 11.1344
lfingers 7.12502
lthumb 15.6061 40.5248
rfemur 0.157884 1.72576 19.4854
rtibia 14.4643
rfoot -15.6748 -1.4411
rtoes -6.6115
lfemur 0 0 0
ltibia 0
lfoot 0 0
ltoes 0
1004
root 3.18538 17.7856 0.393088 -28.2234 88.5493 -28.0903
lowerback 2.91208 0.144034 3.13863
upperback 0.104444 0.283319 -0.97875
thorax -1.50566 0.11743 -2.77876
lowerneck -2.16101 -5.07495 -5.25397
upperneck 1.9128 -6.81368 8.57043
head 1.52475 -3.31683 3.56029
rclavicle -1.46604e-015 1.19271e-015
rhumerus -35.0856 -4.08605 -84.2188
rradius 34.2221
rwrist 12.1596
rhand -6.4245 6.43226
rfingers 7.12502
rthumb 19.4242 -22.6175
lclavicle -1.46604e-015 1.19271e-015
lhumerus -33.5765 -6.70613 86.9177
lradius 28.9414
lwrist 29.1739
lhand -10.4472 11.2818
lfingers 7.12502
lthumb 15.553 40.6764
rfemur 0.161115 1.65446 19.599
rtibia 14.4893
rfoot -15.6732 -1.32122
rtoes -6.20463
lfemur 0 0 0
ltibia 0
lfoot 0 0
ltoes 0
1005
root 3.18412 17.7854 0.394344 -28.3536 88.5535 -28.2107
lowerback 2.94952 0.134473 3.12686
upperback 0.100406 0.271444 -0.975013
thorax -1.53172 0.111076 -2.76802
lowerneck -2.19053 -5.07552 -5.29291
upperneck 1.9382 -6.81487 8.6093
head 1.54203 -3.31617 3.58034
rclavicle 8.69683e-017 -1.78906e-015
rhumerus -35.1168 -4.06383 -84.224
rradius 34.2721
rwrist 12.1499
rhand -6.41855 6.47229
rfingers 7.12502
rthumb 19.43 -22.5769
lclavicle 8.69683e-017 -1.78906e-015
lhumerus -33.6287 -6.79947 86.946
lradius 28.9071
lwrist 29.283
lhand -10.4672 11.3958
lfingers 7.12502
lthumb 15.5337 40.7919
rfemur 0.165398 1.68116 19.6091
rtibia 14.5136
rfoot -15.6915 -1.33021
rtoes -6.33557
lfemur 0 0 0
ltibia 0
lfoot 0 0
ltoes 0
1006
root 3.18335 17.7855 0.394255 -24.423 88.6066 -24.2422
lowerback 2.98458 0.120456 3.0138
upperback 0.11411 0.249689 -0.998387
thorax -1.53919 0.101087 -2.7277
lowerneck -2.22517 -5.05895 -5.33089
upperneck 1.96568 -6.79252 8.62425
head 1.5579 -3.3041 3.59258
rclavicle 5.09386e-015 2.5842e-015
rhumerus -35.1217 -4.03405 -84.2326
rradius 34.3302
rwrist 12.1309
rhand -6.41145 6.42911
rfingers 7.12502
rthumb 19.4368 -22.6194
lclavicle 5.09386e-015 2.5842e-015
lhumerus -33.6449 -6.77245 86.9524
lradius 28.8253
lwrist 29.3447
lhand -10.5548 11.333
lfingers 7.12502
lthumb 15.4493 40.7356
rfemur 0.184463 1.67584 19.4845
rtibia 14.5544
rfoot -15.7318 -1.36281
rtoes -6.7077
lfemur 0 0 0
ltibia 0
lfoot 0 0
ltoes 0
1007
root 3.18181 17.7847 0.394246 -23.3979 88.6423 -23.1946
lowerback 3.00484 0.112118 2.99136
upperback 0.131839 0.23819 -1.01194
thorax -1.53316 0.0958722 -2.72859
lowerneck -2.24444 -5.0507 -5.35199
upperneck 1.94545 -6.77962 8.6489
head 1.55587 -3.29729 3.60531
rclavicle 1.84497e-015 9.93923e-016
rhumerus -35.0829 -4.02787 -84.2437
rradius 34.3349
rwrist 12.0397
rhand -6.37894 6.3783
rfingers 7.12502
rthumb 19.468 -22.6671
lclavicle 1.84497e-015 9.93923e-016
lhumerus -33.6569 -6.78495 86.947
lradius 28.768
lwrist 29.3613
lhand -10.6635 11.1526
lfingers 7.12502
lthumb 15.3447 40.5633
rfemur 0.181313 1.63388 19.4446
rtibia 14.5976
rfoot -15.7642 -1.41216
rtoes -7.21288
lfemur 0 0 0
ltibia 0
lfoot 0 0
ltoes 0
1008
root 3.18148 17.7819 0.393591 -23.4626 88.6444 -23.2496
lowerback 2.98839 0.123895 3.01431
upperback 0.145413 0.253973 -1.02367
thorax -1.50875 0.104202 -2.75413
lowerneck -2.17364 -5.06594 -5.3411
upperneck 1.85333 -6.79746 8.65825
head 1.51439 -3.30864 3.60811
rclavicle 2.48481e-016 1.98785e-016
rhumerus -35.0792 -4.06803 -84.2418
rradius 34.3311
rwrist 12.0645
rhand -6.41317 6.37863
rfingers 7.12502
rthumb 19.4351 -22.6701
lclavicle 2.48481e-016 1.98785e-016
lhumerus -33.6569 -6.7502 86.9178
lradius 28.6602
lwrist 29.2561
lhand -10.7153 11.0743
lfingers 7.12502
lthumb 15.2947 40.4888
rfemur 0.153753 1.54565 19.4261
rtibia 14.649
rfoot -15.7693 -1.29427
rtoes -7.10363
lfemur 0 0 0
ltibia 0
lfoot 0 0
ltoes 0
1009
root 3.18103 17.7803 0.393947 -25.1951 88.6468 -24.9849
lowerback 2.97907 0.128897 3.0721
upperback 0.139174 0.262214 -1.0308
thorax -1.50909 0.107785 -2.79435
lowerneck -2.15493 -5.07902 -5.31884
upperneck 1.86682 -6.81686 8.65393
head 1.51576 -3.31836 3.60205
rclavicle -5.62809e-015 -3.97569e-015
rhumerus -35.0952 -4.11377 -84.2477
rradius 34.3054
rwrist 12.1083
rhand -6.43832 6.4228
rfingers 7.12502
rthumb 19.411 -22.6283
lclavicle -5.62809e-015 -3.97569e-015
lhumerus -33.7157 -6.75668 86.8878
lradius 28.6387
lwrist 29.1999
lhand -10.6841 11.0207
lfingers 7.12502
lthumb 15.3248 40.4328
rfemur 0.142558 1.58534 19.467
rtibia 14.6653
rfoot -15.7672 -1.26305
rtoes -6.69016
lfemur 0 0 0
ltibia 0
lfoot 0 0
ltoes 0
1010
root 3.17991 17.7817 0.395476 -23.9585 88.6736 -23.7349
lowerback 2.99497 0.129173 3.02231
upperback 0.146383 0.261219 -1.04349
thorax -1.51081 0.107712 -2.77941
lowerneck -2.18628 -5.07909 -5.27185
upperneck 1.89644 -6.81809 8.6223
head 1.52758 -3.3179 3.58108
rclavicle 1.86361e-015 -2.78299e-015
rhumerus -35.0671 -4.14362 -84.2456
rradius 34.2909
rwrist 12.1693
rhand -6.3333 6.41701
rfingers 7.12502
rthumb 19.5119 -22.6239
lclavicle 1.86361e-015 -2.78299e-015
lhumerus -33.7739 -6.74662 86.8592
lradius 28.6969
lwrist 29.1385
lhand -10.6157 11.2537
lfingers 7.12502
lthumb 15.3907 40.6608
rfemur 0.172257 1.62866 19.4383
rtibia 14.639
rfoot -15.7822 -1.32825
rtoes -7.00004
lfemur 0 0 0
ltibia 0
lfoot 0 0
ltoes 0
1011
root 3.1803 17.7841 0.395877 -24.1831 88.6868 -23.9697
lowerback 2.94985 0.134189 3.03274
upperback 0.156055 0.266784 -1.04902
thorax -1.47511 0.111168 -2.79092
lowerneck -2.20406 -5.0799 -5.27538
upperneck 1.93365 -6.82084 8.62973
head 1.54366 -3.31829 3.5836
rclavicle -6.83322e-017 -3.97569e-016
rhumerus -35.0527 -4.16087 -84.2471
rradius 34.2837
rwrist 12.1659
rhand -6.33509 6.42719
rfingers 7.12502
rthumb 19.5102 -22.6139
lclavicle -6.83322e-017 -3.97569e-016
lhumerus -33.7491 -6.6383 86.7915
lradius 28.6493
lwrist 29.0358
lhand -10.5052 11.3026
lfingers 7.12502
lthumb 15.4971 40.7016
rfemur 0.193002 1.56834 19.4402
rtibia 14.5906
rfoot -15.7319 -1.39431
rtoes -7.55093
lfemur 0 0 0
ltibia 0
lfoot 0 0
ltoes 0
